HIERARCHY
ROOT Hips
{
	OFFSET 0.000000 0.000000 0.000000
	CHANNELS 6 Xposition Yposition Zposition Xrotation Yrotation Zrotation
	JOINT LeftUpLeg_virtual
	{
		OFFSET 0.000000 0.000000 0.000000
		CHANNELS 3 Xrotation Yrotation Zrotation
		JOINT LeftUpLeg
		{
			OFFSET 10.205400 -3.823500 0.155100
			CHANNELS 3 Xrotation Yrotation Zrotation
			JOINT LeftLeg
			{
				OFFSET 0.708757 -12.982077 0.567790
				CHANNELS 3 Xrotation Yrotation Zrotation
				JOINT LeftFoot
				{
					OFFSET -0.708756 -10.717838 -2.184338
					CHANNELS 3 Xrotation Yrotation Zrotation
					JOINT LeftToeBase
					{
						OFFSET 0.108149 -7.191104 7.560241
						CHANNELS 3 Xrotation Yrotation Zrotation
						JOINT LeftToe_End
						{
							OFFSET 0.070230 0.081724 4.490308
							CHANNELS 3 Xrotation Yrotation Zrotation
							End Site
							{
								OFFSET 0 0 0
							}
						}
					}
				}
			}
		}
	}
	JOINT RightUpLeg_virtual
	{
		OFFSET 0.000000 0.000000 0.000000
		CHANNELS 3 Xrotation Yrotation Zrotation
		JOINT RightUpLeg
		{
			OFFSET -10.205400 -3.823500 0.005500
			CHANNELS 3 Xrotation Yrotation Zrotation
			JOINT RightLeg
			{
				OFFSET -0.708756 -12.982134 0.610632
				CHANNELS 3 Xrotation Yrotation Zrotation
				JOINT RightFoot
				{
					OFFSET 0.708754 -10.717769 -1.945823
					CHANNELS 3 Xrotation Yrotation Zrotation
					JOINT RightToeBase
					{
						OFFSET -0.108140 -7.191069 7.372968
						CHANNELS 3 Xrotation Yrotation Zrotation
						JOINT RightToe_End
						{
							OFFSET -0.070227 0.081735 4.479403
							CHANNELS 3 Xrotation Yrotation Zrotation
							End Site
							{
								OFFSET 0 0 0
							}
						}
					}
				}
			}
		}
	}
	JOINT Spine_virtual
	{
		OFFSET 0.000000 0.000000 0.000000
		CHANNELS 3 Xrotation Yrotation Zrotation
		JOINT Spine
		{
			OFFSET 0.000000 6.876099 0.125700
			CHANNELS 3 Xrotation Yrotation Zrotation
			JOINT Spine1
			{
				OFFSET 0.000000 5.730043 0.104720
				CHANNELS 3 Xrotation Yrotation Zrotation
				JOINT Spine1_split
				{
					OFFSET 0.000000 5.730043 0.104720
					CHANNELS 3 Xrotation Yrotation Zrotation
					JOINT Spine2
					{
						OFFSET 0.000000 5.730043 0.104720
						CHANNELS 3 Xrotation Yrotation Zrotation
						JOINT Neck_virtual
						{
							OFFSET 0.000000 0.000000 0.000000
							CHANNELS 3 Xrotation Yrotation Zrotation
							JOINT Neck
							{
								OFFSET 0.000000 10.314075 0.188496
								CHANNELS 3 Xrotation Yrotation Zrotation
								JOINT Head
								{
									OFFSET 0.000000 7.643700 -2.377400
									CHANNELS 3 Xrotation Yrotation Zrotation
									JOINT HeadTop_End
									{
										OFFSET 0.000000 43.788605 -13.619600
										CHANNELS 3 Xrotation Yrotation Zrotation
										End Site
										{
											OFFSET 0 0 0
										}
									}
								}
							}
						}
						JOINT LeftShoulder_virtual
						{
							OFFSET 0.000000 0.000000 0.000000
							CHANNELS 3 Xrotation Yrotation Zrotation
							JOINT LeftShoulder
							{
								OFFSET 2.196100 4.412489 0.087492
								CHANNELS 3 Xrotation Yrotation Zrotation
								JOINT LeftShoulder_split
								{
									OFFSET 2.196100 4.412489 0.087492
									CHANNELS 3 Xrotation Yrotation Zrotation
									JOINT LeftArm
									{
										OFFSET 8.771219 -2.981674 -0.026999
										CHANNELS 3 Xrotation Yrotation Zrotation
										JOINT LeftForeArm
										{
											OFFSET 8.512804 0.000000 -0.000000
											CHANNELS 3 Xrotation Yrotation Zrotation
											JOINT LeftHand
											{
												OFFSET 18.484802 0.000000 -0.000000
												CHANNELS 3 Xrotation Yrotation Zrotation
												End Site
												{
													OFFSET 0 0 0
												}
											}
										}
									}
								}
							}
						}
						JOINT RightShoulder_virtual
						{
							OFFSET 0.000000 0.000000 0.000000
							CHANNELS 3 Xrotation Yrotation Zrotation
							JOINT RightShoulder
							{
								OFFSET -2.196100 4.412496 0.070690
								CHANNELS 3 Xrotation Yrotation Zrotation
								JOINT RightShoulder_split
								{
									OFFSET -2.196100 4.412496 0.070690
									CHANNELS 3 Xrotation Yrotation Zrotation
									JOINT RightArm
									{
										OFFSET -8.771282 -2.981682 -0.094208
										CHANNELS 3 Xrotation Yrotation Zrotation
										JOINT RightForeArm
										{
											OFFSET -8.494598 0.000000 0.000000
											CHANNELS 3 Xrotation Yrotation Zrotation
											JOINT RightHand
											{
												OFFSET -18.483803 0.000000 0.000001
												CHANNELS 3 Xrotation Yrotation Zrotation
												End Site
												{
													OFFSET 0 0 0
												}
											}
										}
									}
								}
							}
						}
					}
				}
			}
		}
	}
}
MOTION
Frames: 5
Frame Time: 0.03333333
4.973917 28.253288 1.075121 0.000000 0.000000 0.000000 9.050822 -1.634116 -9.783764 -54.362763 -11.140484 31.248232 54.498551 -6.152889 -5.550578 -5.330888 4.128401 -16.911444 -0.989122 0.033265 0.974731 0.000000 0.000000 0.000000 9.720095 -1.010429 -10.440573 -31.335641 -22.968926 3.460315 50.735526 9.820992 -0.768064 -29.906233 -15.456114 -9.868874 1.507769 -0.771032 -2.016057 0.000000 0.000000 0.000000 8.078108 0.403882 -10.850821 7.804183 -3.635064 -7.451690 5.417971 -1.736603 -6.244631 1.280567 0.921495 0.548454 0.000000 0.000000 0.000000 7.803762 -1.778724 -6.341052 -6.919730 0.529262 -6.869457 -29.432217 -12.758701 13.076410 0.000000 0.000000 0.000000 6.734211 -1.513190 -6.057349 0.894920 -5.386622 -7.819181 -0.707144 -4.090297 0.531930 -27.119985 7.930440 -19.359051 2.607682 -59.277470 2.399863 0.000000 0.000000 0.000000 6.489706 -1.869565 -6.054230 1.855707 -1.832298 4.258450 6.327278 3.854796 -3.029301 24.853812 -8.702763 81.201558 8.583472 80.261000 -7.634501 0.000000 0.000000 0.000000 
5.059305 27.864050 0.716829 0.000000 0.000000 0.000000 8.559724 -3.062189 -9.071229 -54.924570 -11.555251 31.076934 56.287531 -5.354818 -5.789802 -5.643737 4.623050 -17.158784 -0.551757 0.098480 1.058916 0.000000 0.000000 0.000000 9.119539 -2.191934 -9.730911 -33.658284 -21.323466 3.509897 53.061578 8.673580 -0.890532 -30.169355 -16.033386 -10.301038 1.399868 -0.743524 -1.962918 0.000000 0.000000 0.000000 7.626227 -0.885396 -10.297518 8.675224 -3.278794 -6.983422 5.980418 -1.478170 -5.950262 1.349053 0.913805 0.619451 0.000000 0.000000 0.000000 8.089567 -1.552749 -6.067079 -5.956714 0.397305 -6.691666 -28.357274 -12.208893 12.764052 0.000000 0.000000 0.000000 7.145997 -1.348620 -5.942648 0.937560 -5.629474 -8.743227 -0.555866 -4.108629 0.705690 -24.243878 12.234249 -22.856477 2.143280 -56.898064 2.063808 0.000000 0.000000 0.000000 7.062368 -1.602666 -5.760065 1.844394 -0.685318 5.067912 5.955820 3.510509 -3.025336 21.855712 -5.638343 79.616605 6.139225 76.307625 -5.310294 0.000000 0.000000 0.000000 
5.074393 27.616156 0.417496 0.000000 0.000000 0.000000 8.141829 -4.220499 -8.478824 -55.097709 -11.798109 30.933804 57.317274 -4.400034 -6.077032 -5.931566 5.077061 -17.306847 -0.269071 0.168837 0.975475 0.000000 0.000000 0.000000 8.485947 -3.283945 -9.105595 -35.509330 -19.902080 3.593886 54.684168 7.580469 -0.859474 -30.126564 -16.435985 -10.514501 1.711810 -0.689996 -1.912085 0.000000 0.000000 0.000000 7.183634 -2.237803 -9.793432 9.367401 -3.005756 -6.632099 6.391982 -1.268080 -5.696429 1.400076 0.972773 0.521041 0.000000 0.000000 0.000000 8.229499 -1.373095 -5.809163 -5.170798 0.382729 -6.560219 -26.759617 -11.552499 12.609375 0.000000 0.000000 0.000000 7.390423 -1.206872 -5.850008 0.975182 -5.810553 -9.605445 -0.636097 -3.797688 0.911882 -21.331603 15.263361 -26.802557 1.579076 -53.528469 1.640038 0.000000 0.000000 0.000000 7.510765 -1.373403 -5.518181 1.771101 0.362485 5.873686 5.562898 3.306965 -2.928295 18.832689 -2.774347 77.815273 4.792983 72.611072 -4.108556 0.000000 0.000000 0.000000 
5.029407 27.514725 0.180925 0.000000 0.000000 0.000000 7.699098 -5.122381 -8.023360 -54.917327 -11.971710 30.891784 57.743171 -3.481371 -6.353133 -5.919408 5.344430 -17.503441 -0.130502 0.238215 0.739554 0.000000 0.000000 0.000000 7.921904 -4.258396 -8.616566 -36.759911 -18.696398 3.818809 55.452988 6.667250 -0.797876 -29.546387 -16.662209 -10.279922 1.953177 -0.608032 -1.919318 0.000000 0.000000 0.000000 6.725988 -3.637022 -9.336525 9.796512 -2.797386 -6.402289 6.598741 -1.113924 -5.498126 1.353547 1.141609 0.324182 0.000000 0.000000 0.000000 8.166453 -1.231876 -5.601249 -4.532745 0.418434 -6.461426 -24.655523 -10.917991 12.651204 0.000000 0.000000 0.000000 7.430925 -1.092398 -5.784477 1.003454 -5.854663 -10.391245 -0.833709 -3.398900 1.055183 -18.530735 16.925656 -30.809621 1.076911 -49.695268 1.257520 0.000000 0.000000 0.000000 7.763393 -1.177971 -5.354278 1.648789 1.250855 6.697699 5.349432 3.305281 -2.756083 15.836219 -0.144456 76.026986 3.941382 69.221665 -3.397658 0.000000 0.000000 0.000000 
4.941344 27.557575 -0.003160 0.000000 0.000000 0.000000 7.151531 -5.889135 -7.724167 -54.228389 -12.100110 30.976691 57.692511 -2.685336 -6.585921 -5.579515 5.414402 -17.536859 -0.041639 0.289973 0.445837 0.000000 0.000000 0.000000 7.403384 -5.196697 -8.242829 -37.253252 -17.618618 4.306485 55.152832 5.958486 -0.779159 -28.411686 -16.732452 -9.752916 1.909493 -0.536711 -1.980265 0.000000 0.000000 0.000000 6.235278 -5.102362 -8.943402 9.895312 -2.616768 -6.271567 6.591300 -1.015443 -5.361145 1.314649 1.470284 0.134127 0.000000 0.000000 0.000000 7.874777 -1.121657 -5.457439 -3.941003 0.441533 -6.349789 -21.956702 -10.386322 12.893278 0.000000 0.000000 0.000000 7.282659 -1.005656 -5.743001 1.023292 -5.752083 -11.134512 -1.290558 -2.994494 1.003350 -15.975543 17.315672 -34.491540 0.776539 -46.036476 1.011422 0.000000 0.000000 0.000000 7.764847 -1.017628 -5.277480 1.518386 1.947413 7.522874 5.288126 3.422468 -2.620528 12.987404 2.319334 74.401968 3.358681 66.241510 -2.912857 0.000000 0.000000 0.000000 
